<?xml version="1.0" encoding="iso-8859-1"?>
<!-- Generator: Adobe Illustrator 16.0.0, SVG Export Plug-In . SVG Version: 6.00 Build 0)  -->
<!DOCTYPE svg PUBLIC "-//W3C//DTD SVG 1.1//EN" "http://www.w3.org/Graphics/SVG/1.1/DTD/svg11.dtd">
<svg version="1.1" id="Capa_1" xmlns="http://www.w3.org/2000/svg" xmlns:xlink="http://www.w3.org/1999/xlink" x="0px" y="0px"
	 width="57.157px" height="57.157px" viewBox="0 0 57.157 57.157" style="enable-background:new 0 0 57.157 57.157;"
	 xml:space="preserve">
<g>
	<g>
		<path d="M48.549,28.375C48.549,14.968,37.683,4.1,24.275,4.1C10.869,4.1,0,14.968,0,28.375c0,13.406,10.869,24.274,24.275,24.274
			C37.683,52.649,48.549,41.781,48.549,28.375z M43.389,21.755c0.461,0,0.834,0.374,0.834,0.834c0,0.461-0.371,0.837-0.834,0.837
			c-0.462,0-0.837-0.375-0.837-0.837C42.552,22.129,42.926,21.755,43.389,21.755z M41.937,29.143c0,0.601-0.03,1.193-0.087,1.776
			l-13.638-5.522l7.778-9.465C39.638,19.168,41.937,23.886,41.937,29.143z M23.209,6.887c0.461,0,0.835,0.374,0.835,0.835
			s-0.373,0.835-0.835,0.835c-0.46,0-0.835-0.374-0.835-0.835C22.374,7.261,22.748,6.887,23.209,6.887z M24.275,11.481
			c2.33,0,4.552,0.456,6.586,1.275l-7.705,9.378l-7.604-8.347C18.128,12.322,21.103,11.481,24.275,11.481z M3.806,24.26
			c-0.461,0-0.835-0.374-0.835-0.835c0-0.462,0.374-0.836,0.835-0.836c0.461,0,0.834,0.374,0.834,0.836
			C4.639,23.886,4.267,24.26,3.806,24.26z M6.732,31.172c-0.077-0.667-0.12-1.342-0.12-2.029c0-4.421,1.629-8.46,4.314-11.559
			l7.908,8.684L6.732,31.172z M12.724,47.372c-0.46,0-0.834-0.374-0.834-0.835c0-0.462,0.374-0.835,0.834-0.835
			c0.462,0,0.835,0.373,0.835,0.835C13.56,46.998,13.187,47.372,12.724,47.372z M8.423,36.937l12.649-5.125l0.291,14.752
			C15.666,45.618,10.893,41.948,8.423,36.937z M23.731,31.425c-1.859,0-3.369-1.508-3.369-3.368c0-1.862,1.51-3.369,3.369-3.369
			c1.861,0,3.371,1.508,3.371,3.369C27.103,29.918,25.593,31.425,23.731,31.425z M36.412,45.702c-0.46,0-0.834-0.375-0.834-0.837
			c0-0.461,0.374-0.835,0.834-0.835c0.462,0,0.836,0.374,0.836,0.835C37.248,45.327,36.874,45.702,36.412,45.702z M27.343,46.537
			l-0.299-15.164l13.192,5.345C37.822,41.795,33.052,45.537,27.343,46.537z"/>
		<path d="M42.949,46.429c-2.234,1.874-7.37,5.27-7.37,5.27c10.215-2.989,20.311,1.358,20.311,1.358l1.268-10.598
			C50.363,41.373,46.367,43.565,42.949,46.429z"/>
	</g>
</g>
<g>
</g>
<g>
</g>
<g>
</g>
<g>
</g>
<g>
</g>
<g>
</g>
<g>
</g>
<g>
</g>
<g>
</g>
<g>
</g>
<g>
</g>
<g>
</g>
<g>
</g>
<g>
</g>
<g>
</g>
</svg>
