<svg xmlns="http://www.w3.org/2000/svg" viewBox="0 0 769 309.9">
    <defs>
        <style>.a{fill:#f27326;}.b{fill:none;}.c{isolation:isolate;}</style>
    </defs>
    <title>logo</title>
    <rect class="a" x="481" y="147.9" width="162" height="162" />
    <path class="b" d="M760,287H868v22.85L803.85,370H868v25H759V371.2L822.71,311H760Z" transform="translate(-251 -112.1)" />
    <g class="c">
        <path class="b" d="M657,355v14.65c0,17.66-8.86,27.71-26,27.71s-26-10.1-26-27.71V312.27c0-17.65,8.86-27.71,26-27.71s26,10.1,26,27.71V323H640V311.2c0-7.86-3.49-10.86-9-10.86s-9,3-9,10.86v59.58c0,7.86,3.49,10.72,9,10.72s9-2.81,9-10.72V355h17Z" transform="translate(-251 -112.1)" />
        <path class="b" d="M723.12,396H705.71l-3-20H681.47l-3,20H662.63l17.61-110h25.31Zm-39.46-35h16.69L692,305.29Z" transform="translate(-251 -112.1)" />
    </g>
    <g class="c">
        <path class="b" d="M958,355v14.65c0,17.66-8.86,27.71-26,27.71s-26-10.1-26-27.71V312.27c0-17.65,8.86-27.71,26-27.71s26,10.1,26,27.71V323H942V311.2c0-7.86-3.49-10.86-9-10.86s-9,3-9,10.86v59.58c0,7.86,3.49,10.72,9,10.72s9-2.81,9-10.72V355h16Z" transform="translate(-251 -112.1)" />
        <path class="b" d="M967,312c0-17.77,9.36-27.89,26.5-27.89S1020,294.28,1020,312v57.73c0,17.77-9.36,27.89-26.5,27.89S967,387.45,967,369.73Zm18,58.71c0,7.88,3.49,10.88,9,10.88s9-3,9-10.88V311c0-7.88-3.49-10.88-9-10.88s-9,3-9,10.88Z" transform="translate(-251 -112.1)" />
    </g>
    <path class="b" d="M637.74,245.72q-12.36,0-19.37-4.73a24.67,24.67,0,0,1-9.79-12.9,58.47,58.47,0,0,1-2.78-18.84v-39a61,61,0,0,1,2.78-19.45,23.38,23.38,0,0,1,9.79-12.7q7-4.45,19.37-4.46,11.65,0,18.26,3.85a21.41,21.41,0,0,1,9.37,11,45.82,45.82,0,0,1,2.77,16.61v9.19H648.43v-9.46a64.84,64.84,0,0,0-.49-8.37,10.22,10.22,0,0,0-2.64-6c-1.43-1.49-3.91-2.23-7.42-2.23s-6.09.79-7.71,2.37a11.23,11.23,0,0,0-3.12,6.34,52,52,0,0,0-.7,9v47.54a41.35,41.35,0,0,0,1,9.79,10.11,10.11,0,0,0,3.54,5.81,11.3,11.3,0,0,0,7,2q5.13,0,7.29-2.37a11.44,11.44,0,0,0,2.7-6.28,62.83,62.83,0,0,0,.56-8.78v-9.86h19.71v8.78a51.93,51.93,0,0,1-2.63,17.22,22.5,22.5,0,0,1-9.24,11.76Q649.68,245.72,637.74,245.72Z" transform="translate(-251 -112.1)" />
    <path class="b" d="M683,244.23V134.83h20.27v109.4Z" transform="translate(-251 -112.1)" />
    <path class="b" d="M720.63,244.23V134.83h14.3l27.35,62.4v-62.4h16.94v109.4H765.61l-27.49-65.37v65.37Z" transform="translate(-251 -112.1)" />
    <path class="b" d="M796.3,244.23V134.83h47.2v14H816.84v31.47h21v13.91h-21v36.2h26.94v13.77Z" transform="translate(-251 -112.1)" />
    <path class="b" d="M855.44,244.23l1.95-109.4h21.24l16,75.77,16.66-75.77h20.55l2.08,109.4H918.62l-1.67-76-16,76H888.63l-16.25-76.31-1.53,76.31Z" transform="translate(-251 -112.1)" />
    <path class="b" d="M944.86,244.23l22.49-109.4h21.94l22.49,109.4h-19L988.32,219H968.74l-4.58,25.25Zm26-37.95h15.27l-7.63-45.92Z" transform="translate(-251 -112.1)" />
    <path class="b" d="M541.46,257.33A145.23,145.23,0,1,0,396.23,402.56,145.22,145.22,0,0,0,541.46,257.33Zm-30.87-39.6a5,5,0,1,1-5,5A5,5,0,0,1,510.59,217.73Zm-8.69,44.2c0,3.59-.18,7.13-.52,10.62l-81.59-33,46.53-56.63A105.34,105.34,0,0,1,501.9,261.93Zm-112-133.16a5,5,0,1,1-5,5A5,5,0,0,1,389.85,128.77Zm6.38,27.49a105.3,105.3,0,0,1,39.41,7.63L389.54,220,344,170.06A105.23,105.23,0,0,1,396.23,156.26ZM273.77,232.71a5,5,0,1,1,5-5A5,5,0,0,1,273.77,232.71Zm17.51,41.36a105.17,105.17,0,0,1,25.09-81.3l47.31,52ZM327.13,371a5,5,0,1,1,5-5A5,5,0,0,1,327.13,371Zm-25.74-62.43,75.68-30.66,1.74,88.25A105.82,105.82,0,0,1,301.39,308.56Zm91.59-33a20.16,20.16,0,1,1,20.17-20.15A20.16,20.16,0,0,1,393,275.58ZM468.85,361a5,5,0,1,1,5-5A5,5,0,0,1,468.85,361Zm-54.26,5-1.79-90.72,78.92,32A105.83,105.83,0,0,1,414.59,366Z" transform="translate(-251 -112.1)" />
    <path class="b" d="M508,365.35c-13.37,11.21-44.1,31.53-44.1,31.53C525,379,585.38,405,585.38,405L593,341.59C552.31,335.1,528.4,348.21,508,365.35Z" transform="translate(-251 -112.1)" />
</svg>